<svg width="250" height="250" viewBox="0 0 250 250" fill="none" xmlns="http://www.w3.org/2000/svg">
<path d="M75.2838 29.3717C67.8713 30.8015 62.1144 37.6497 62.0015 45.0622C61.9638 47.7337 62.6411 49.2012 64.5601 50.6686C66.3662 52.0232 69.6398 52.1737 71.333 50.932C72.8004 49.8408 74.0421 47.9218 74.2679 46.3039C74.6442 43.9334 74.9828 43.1808 76.074 42.353C77.1275 41.5629 77.4662 41.5629 97.6343 41.45L118.103 41.3371V49.6527V57.9306H107.229C95.4895 57.9306 93.119 58.194 88.0394 59.9625C75.9611 64.1767 66.9306 74.6747 64.2591 87.4679C63.5818 90.6662 63.5442 93.2624 63.5442 131.492C63.5442 175.628 63.4689 173.935 65.6513 177.999C67.7208 181.874 72.1984 185.336 76.1116 186.051C76.8642 186.201 77.4662 186.465 77.4662 186.653C77.4662 186.803 74.6442 192.334 71.1448 198.919L64.8611 210.885V213.33C64.8988 218.448 68.3604 221.909 72.9509 221.495C76.7889 221.157 78.896 219.464 81.2665 214.798L82.734 211.825H124.048H165.363L166.605 214.346C168.223 217.657 169.464 219.2 171.308 220.291C175.598 222.812 180.752 221.27 183.01 216.754C183.462 215.814 183.612 214.835 183.499 213.18C183.349 211.073 182.86 209.982 177.065 198.994C173.603 192.447 170.781 186.954 170.781 186.728C170.781 186.54 171.609 186.164 172.663 185.9C175.033 185.298 178.495 183.078 180.339 180.933C182.145 178.864 183.838 175.365 184.327 172.618C184.59 171.226 184.703 156.664 184.59 129.159L184.478 87.8441L183.65 84.834C179.962 71.6269 169.464 61.8439 155.919 59.0218C153.059 58.4198 150.801 58.3069 141.733 58.3069H130.897V49.8408V41.3371L151.441 41.45L171.985 41.5629L173.265 42.9551C174.055 43.8581 174.544 44.7612 174.544 45.4008C174.544 46.0029 174.883 47.1317 175.259 47.9595C177.027 51.8727 181.317 53.0391 184.59 50.5557C186.359 49.2012 187.036 47.6585 186.999 45.0622C186.886 37.4615 181.129 30.8015 173.415 29.3341C170.969 28.8826 77.6543 28.8826 75.2838 29.3717ZM155.655 77.9482C161.563 80.093 166.304 84.3072 168.9 89.7255C171.082 94.2407 171.233 95.5953 171.082 110.082L170.969 122.913L169.878 124.455C169.201 125.434 168.11 126.374 166.906 126.976L164.987 127.917H124.726C86.5719 127.917 84.3519 127.879 82.9221 127.202C81.3042 126.487 79.1594 124.267 78.5574 122.8C77.993 121.295 78.5197 97.74 79.197 94.5041C80.8526 86.5272 87.5126 79.6414 95.5648 77.4967C98.1987 76.8194 99.6285 76.7818 125.629 76.857L152.908 76.9323L155.655 77.9482ZM94.5489 148.123C97.2204 148.988 100.456 152.224 101.51 155.121C104.708 163.851 97.2204 172.806 88.1146 171.15C84.2014 170.436 81.3418 168.291 79.4228 164.603C78.5574 162.985 78.4069 162.27 78.4069 159.336C78.4069 156.401 78.5574 155.686 79.4228 154.068C82.433 148.311 88.1523 146.091 94.5489 148.123ZM162.503 148.311C169.163 150.343 172.775 158.733 169.652 164.942C167.432 169.269 163.557 171.715 158.741 171.715C153.887 171.715 149.936 169.194 147.904 164.791C143.464 155.309 152.382 145.263 162.503 148.311ZM155.843 193.764L159.155 200.161H124.312H89.4316L92.7804 193.764L96.0916 187.368H124.312H152.532L155.843 193.764Z" fill="black"/>
<rect x="7.5" y="7.5" width="235" height="235" rx="47.5" stroke="black" stroke-width="15"/>
</svg>
